<?xml version="1.0" encoding="UTF-8"?>
<svg id="Layer_2" data-name="Layer 2" xmlns="http://www.w3.org/2000/svg" viewBox="0 0 429 374">
  <defs>
    <style>
      .cls-1 {
        fill: none;
      }

      .cls-1, .cls-2 {
        stroke-width: 0px;
      }

      .cls-3 {
        opacity: .76;
      }

      .cls-2 {
        fill: #29abe2;
      }
    </style>
  </defs>
  <g id="Layer_1-2" data-name="Layer 1">
    <rect class="cls-1" width="429" height="374"/>
    <g class="cls-3">
      <path class="cls-2" d="M48.52,40.01l303.63,17.15c2.85.16,5.08,2.52,5.08,5.37v202.12c0,2.85-2.22,5.21-5.07,5.37l-154.86,9.05-7.91,27.29,10.65-1.44,69.44,9.11v10.95l-92.87,7.8-68.95-9.37.79-11.93,39.19-2.56,8.75-27.46-107.85,6.3c-3.09.18-5.69-2.28-5.69-5.37V45.38c0-3.09,2.6-5.55,5.68-5.37Z"/>
      <polygon class="cls-2" points="345.16 320.85 410.05 330.22 411.75 334.39 241 350.67 241.33 345.18 241 345.2 241 346.73 241 350.67 178.31 340.44 178.31 336.18 185.12 334.48 345.16 320.85"/>
    </g>
  </g>
</svg>