<?xml version="1.0" encoding="UTF-8"?>
<svg id="Layer_2" data-name="Layer 2" xmlns="http://www.w3.org/2000/svg" viewBox="0 0 368.91 310.67">
  <defs>
    <style>
      .cls-1 {
        opacity: .76;
      }

      .cls-2 {
        fill: #29abe2;
        stroke-width: 0px;
      }
    </style>
  </defs>
  <g id="Layer_1-2" data-name="Layer 1">
    <g class="cls-1">
      <path class="cls-2" d="M5.68,0l303.63,17.15c2.85.16,5.08,2.52,5.08,5.37v202.12c0,2.85-2.22,5.21-5.07,5.37l-154.86,9.05-7.91,27.29,10.65-1.44,69.44,9.11v10.95l-92.87,7.8-68.95-9.37.79-11.93,39.19-2.56,8.75-27.46-107.85,6.3c-3.09.18-5.69-2.28-5.69-5.37V5.38C0,2.29,2.6-.17,5.68,0Z"/>
      <polygon class="cls-2" points="302.32 280.85 367.21 290.22 368.91 294.39 198.16 310.67 198.49 305.18 198.16 305.2 198.16 306.73 198.16 310.67 135.47 300.44 135.47 296.18 142.28 294.48 302.32 280.85"/>
    </g>
  </g>
</svg>