<?xml version="1.0" encoding="UTF-8"?>
<svg id="Layer_2" data-name="Layer 2" xmlns="http://www.w3.org/2000/svg" viewBox="0 0 69.75 15">
  <defs>
    <style>
      .cls-1 {
        fill: #1a1a1a;
      }

      .cls-1, .cls-2 {
        stroke-width: 0px;
      }

      .cls-2 {
        fill: #fff;
      }
    </style>
  </defs>
  <g id="Layer_1-2" data-name="Layer 1">
    <rect class="cls-1" width="69.75" height="15"/>
    <g>
      <polygon class="cls-2" points="5.56 1.8 1.18 12.85 3.51 12.85 6.25 5.3 9 12.85 11.32 12.85 6.94 1.8 5.56 1.8"/>
      <path class="cls-2" d="M18.17,8.9c0,.63-.18,1.12-.53,1.47-.36.35-.86.52-1.5.52s-1.14-.17-1.49-.52c-.35-.35-.53-.84-.53-1.47V1.8h-2.16v7.05c0,1.31.36,2.32,1.09,3.03.73.72,1.76,1.07,3.09,1.07s2.37-.36,3.1-1.07c.73-.72,1.1-1.73,1.1-3.03V1.8h-2.16v7.1Z"/>
      <polygon class="cls-2" points="21.12 3.81 24.25 3.81 24.25 12.85 26.41 12.85 26.41 3.81 29.53 3.81 29.53 1.8 21.12 1.8 21.12 3.81"/>
      <path class="cls-2" d="M36.64,2.19c-.63-.34-1.36-.51-2.21-.51s-1.58.17-2.21.51c-.63.34-1.12.81-1.46,1.42-.35.61-.52,1.33-.52,2.15v3.13c0,.82.17,1.53.52,2.14.35.61.84,1.09,1.46,1.42.63.34,1.36.51,2.21.51s1.58-.17,2.21-.51c.63-.34,1.12-.81,1.46-1.42.35-.61.52-1.33.52-2.14v-3.13c0-.82-.17-1.54-.52-2.15-.35-.61-.84-1.08-1.46-1.42ZM36.38,8.94c0,.58-.18,1.05-.53,1.41-.36.35-.83.53-1.42.53s-1.06-.18-1.42-.53c-.36-.35-.53-.82-.53-1.41v-3.24c0-.59.18-1.06.53-1.41.36-.35.83-.53,1.42-.53s1.06.18,1.42.53c.36.35.53.82.53,1.41v3.24Z"/>
      <path class="cls-2" d="M47.89,2.84c-.79-.69-1.9-1.04-3.34-1.04h-3.8v11.05h3.79c1,0,1.84-.17,2.51-.5.67-.33,1.17-.8,1.51-1.39.34-.59.5-1.28.5-2.07v-3.13c0-1.26-.39-2.23-1.18-2.92ZM46.83,8.95c0,.6-.19,1.06-.58,1.39-.39.33-.94.5-1.65.5h-1.68V3.81h1.68c.71,0,1.26.16,1.65.49.39.33.58.8.58,1.4v3.25Z"/>
      <polygon class="cls-2" points="51.98 1.8 51.2 1.8 51.2 12.85 51.98 12.85 53.36 12.85 58.89 12.85 58.89 10.84 53.36 10.84 53.36 8.36 58.02 8.36 58.02 6.36 53.36 6.36 53.36 3.81 58.89 3.81 58.89 1.8 53.36 1.8 51.98 1.8"/>
      <polygon class="cls-2" points="66.78 1.8 64.34 9.17 61.9 1.8 59.67 1.8 63.49 12.85 65.18 12.85 69 1.8 66.78 1.8"/>
    </g>
  </g>
</svg>