<?xml version="1.0" encoding="UTF-8"?>
<svg id="Layer_2" data-name="Layer 2" xmlns="http://www.w3.org/2000/svg" viewBox="0 0 167 32">
  <defs>
    <style>
      .cls-1 {
        fill: #1a1a1a;
      }

      .cls-1, .cls-2, .cls-3 {
        stroke-width: 0px;
      }

      .cls-2 {
        fill: #e6e6e6;
      }

      .cls-3 {
        fill: #fff;
      }
    </style>
  </defs>
  <g id="Layer_1-2" data-name="Layer 1">
    <rect class="cls-1" width="167" height="32"/>
    <g>
      <g>
        <path class="cls-3" d="M30.24,26.93l8.58-21.6h2.68l8.58,21.6h-4.55l-5.37-14.75-5.37,14.75h-4.55Z"/>
        <path class="cls-3" d="M59.5,27.15c-2.6,0-4.62-.7-6.04-2.1-1.42-1.4-2.14-3.38-2.14-5.93V5.33h4.23v13.89c0,1.24.34,2.2,1.03,2.88.69.68,1.66,1.03,2.92,1.03s2.25-.34,2.94-1.03c.69-.68,1.04-1.64,1.04-2.88V5.33h4.23v13.79c0,2.56-.72,4.53-2.14,5.93-1.43,1.4-3.45,2.1-6.06,2.1Z"/>
        <path class="cls-3" d="M69.25,9.25v-3.92h16.45v3.92h-16.45ZM75.36,26.93V7.1h4.23v19.83h-4.23Z"/>
        <path class="cls-3" d="M95.28,27.15c-1.65,0-3.08-.33-4.31-.99-1.23-.66-2.18-1.59-2.86-2.79-.68-1.2-1.02-2.59-1.02-4.19v-6.12c0-1.6.34-3,1.02-4.2.68-1.19,1.63-2.12,2.86-2.78,1.23-.66,2.67-.99,4.31-.99s3.08.33,4.31.99c1.23.66,2.18,1.58,2.86,2.78.68,1.19,1.02,2.59,1.02,4.2v6.12c0,1.59-.34,2.99-1.02,4.19-.68,1.2-1.63,2.13-2.86,2.79-1.23.66-2.67.99-4.31.99ZM95.28,23.08c1.15,0,2.08-.35,2.77-1.04.69-.69,1.04-1.61,1.04-2.75v-6.33c0-1.15-.35-2.07-1.04-2.76-.69-.69-1.62-1.03-2.77-1.03s-2.08.34-2.77,1.03c-.69.69-1.04,1.61-1.04,2.76v6.33c0,1.14.35,2.06,1.04,2.75.69.69,1.62,1.04,2.77,1.04Z"/>
        <path class="cls-3" d="M107.64,26.93V5.33h4.23v21.6h-4.23ZM109.77,26.93v-3.92h5.38c1.39,0,2.46-.32,3.22-.97.76-.65,1.14-1.56,1.14-2.73v-6.36c0-1.18-.38-2.09-1.14-2.73-.76-.64-1.84-.97-3.22-.97h-5.38v-3.92h5.29c2.82,0,5,.68,6.53,2.03,1.54,1.35,2.31,3.26,2.31,5.71v6.12c0,1.54-.33,2.88-.99,4.05-.66,1.16-1.64,2.07-2.95,2.72-1.31.65-2.95.97-4.91.97h-5.28Z"/>
        <path class="cls-3" d="M128.07,26.93V5.33h4.23v21.6h-4.23ZM129.6,9.25v-3.92h13.5v3.92h-13.5ZM129.6,18.16v-3.92h11.8v3.92h-11.8ZM129.6,26.93v-3.92h13.5v3.92h-13.5Z"/>
        <path class="cls-3" d="M152.11,26.93l-7.47-21.6h4.35l4.77,14.41,4.77-14.41h4.35l-7.47,21.6h-3.3Z"/>
      </g>
      <path class="cls-2" d="M4.12,4.78h16.33c3.37,0,6.11,2.74,6.11,6.11v16.33H10.23c-3.37,0-6.11-2.74-6.11-6.11V4.78h0Z"/>
      <path class="cls-1" d="M21.63,12.01l-5.91-3.44c-.25-.15-.56-.15-.81,0l-1.23.71h0c-1.55.9-3.1,1.79-4.65,2.69-.25.14-.4.41-.4.69v6.74c0,.1.01.26.11.4.07.12.17.22.29.29l5.9,3.38c.25.14.55.14.8,0l4.22-2.41,1.68-.96c.25-.14.4-.41.4-.69v-6.71c0-.28-.15-.55-.4-.69ZM15.58,20.7c-.16.09-.35.09-.51,0l-2.23-1.29h0l-1.44-.83-.2-.2c-.04-.07-.07-.16-.07-.25v-4.23c0-.18.1-.34.25-.43,1.23-.71,2.47-1.41,3.7-2.12.16-.09.35-.09.5,0l3.7,2.12c.16.09.25.26.25.43v4.21c0,.18-.1.34-.25.43l-1.49.86-2.22,1.29Z"/>
    </g>
  </g>
</svg>